<?xml version="1.0" encoding="UTF-8" standalone="no"?>
<!-- Created with Inkscape (http://www.inkscape.org/) -->

<svg xmlns:dc="http://purl.org/dc/elements/1.1/" xmlns:cc="http://creativecommons.org/ns#"
   xmlns:rdf="http://www.w3.org/1999/02/22-rdf-syntax-ns#" xmlns:svg="http://www.w3.org/2000/svg"
   xmlns="http://www.w3.org/2000/svg" xmlns:xlink="http://www.w3.org/1999/xlink"
   xmlns:sodipodi="http://sodipodi.sourceforge.net/DTD/sodipodi-0.dtd"
   xmlns:inkscape="http://www.inkscape.org/namespaces/inkscape" id="svg2" version="1.1" inkscape:version="0.48.2 r9819"
   width="4557.2" height="3134.5" sodipodi:docname="Numata panorama xray teeth.svg">
   <title id="title2987">Numata panorama xray teeth</title>
   <metadata id="metadata8">
      <rdf:RDF>
         <cc:Work rdf:about="">
            <dc:format>image/svg+xml</dc:format>
            <dc:type rdf:resource="http://purl.org/dc/dcmitype/StillImage" />
            <dc:title>Numata panorama xray teeth</dc:title>
         </cc:Work>
      </rdf:RDF>
   </metadata>
   <defs id="defs6">
      <marker inkscape:stockid="Arrow1Lend" orient="auto" refY="0" refX="0" id="Arrow1Lend" style="overflow:visible">
         <path id="path4369" d="M 0 0 L 5 -5 L -12.5 0 L 5 5 L 0 0 z"
            style="fill-rule: evenodd; stroke: #000000; stroke-width: 1pt; marker-start: none"
            transform="matrix(-0.8,0,0,-0.8,-10,0)" inkscape:connector-curvature="0" />
      </marker>
      <marker inkscape:stockid="Arrow1Mend" orient="auto" refY="0" refX="0" id="Arrow1Mend" style="overflow:visible">
         <path id="path4375" d="M 0 0 L 5 -5 L -12.5 0 L 5 5 L 0 0 z"
            style="fill-rule: evenodd; stroke: #000000; stroke-width: 1pt; marker-start: none"
            transform="matrix(-0.4,0,0,-0.4,-4,0)" inkscape:connector-curvature="0" />
      </marker>
      <marker inkscape:stockid="Arrow1Mstart" orient="auto" refY="0" refX="0" id="Arrow1Mstart"
         style="overflow:visible">
         <path id="path4372" d="M 0 0 L 5 -5 L -12.5 0 L 5 5 L 0 0 z"
            style="fill-rule: evenodd; stroke: #000000; stroke-width: 1pt; marker-start: none"
            transform="matrix(0.4,0,0,0.4,4,0)" inkscape:connector-curvature="0" />
      </marker>
      <marker style="overflow:visible" inkscape:stockid="InfiniteLineEnd" id="InfiniteLineEnd" refX="0" refY="0"
         orient="auto">
         <g id="g4021">
            <circle id="circle4023" r="0.8" cy="0" cx="3" sodipodi:cx="3" sodipodi:cy="0" sodipodi:rx="0.8000000119209"
               sodipodi:ry="0.8000000119209" />
            <circle id="circle4025" r="0.8" cy="0" cx="6.5" sodipodi:cx="6.5" sodipodi:cy="0"
               sodipodi:rx="0.8000000119209" sodipodi:ry="0.8000000119209" />
            <circle id="circle4027" r="0.8" cy="0" cx="10" sodipodi:cx="10" sodipodi:cy="0"
               sodipodi:rx="0.8000000119209" sodipodi:ry="0.8000000119209" />
         </g>
      </marker>
      <marker inkscape:stockid="TriangleInS" orient="auto" refY="0" refX="0" id="TriangleInS" style="overflow:visible">
         <path id="path3925" d="M 5.8 0 l -8.7 5 l 0 -10 l 8.7 5 z"
            style="fill-rule: evenodd; stroke: #000000; stroke-width: 1pt; marker-start: none"
            transform="scale(-0.2,-0.2)" inkscape:connector-curvature="0" />
      </marker>
      <marker inkscape:stockid="Arrow1Sstart" orient="auto" refY="0" refX="0" id="Arrow1Sstart"
         style="overflow:visible">
         <path id="path3797" d="M 0 0 L 5 -5 L -12.5 0 L 5 5 L 0 0 z"
            style="fill-rule: evenodd; stroke: #000000; stroke-width: 1pt; marker-start: none"
            transform="matrix(0.2,0,0,0.2,1.2,0)" inkscape:connector-curvature="0" />
      </marker>
      <marker inkscape:stockid="Arrow1Lstart" orient="auto" refY="0" refX="0" id="Arrow1Lstart"
         style="overflow:visible">
         <path id="path3785" d="M 0 0 L 5 -5 L -12.5 0 L 5 5 L 0 0 z"
            style="fill-rule: evenodd; stroke: #000000; stroke-width: 1pt; marker-start: none"
            transform="matrix(0.8,0,0,0.8,10,0)" inkscape:connector-curvature="0" />
      </marker>
   </defs>
   <sodipodi:namedview pagecolor="#ffffff" bordercolor="#666666" borderopacity="1" objecttolerance="10"
      gridtolerance="10" guidetolerance="10" inkscape:pageopacity="0" inkscape:pageshadow="2"
      inkscape:window-width="1280" inkscape:window-height="781" id="namedview4" showgrid="false"
      inkscape:zoom="0.1208910034602" inkscape:cx="592.6952936355" inkscape:cy="1326.865278745" inkscape:window-x="-4"
      inkscape:window-y="-4" inkscape:window-maximized="1" inkscape:current-layer="svg2" showguides="true"
      inkscape:guide-bbox="true" fit-margin-top="100" fit-margin-left="100" fit-margin-right="100"
      fit-margin-bottom="100" />
   <g inkscape:groupmode="layer" id="layer1" inkscape:label="svg" transform="translate(477.4,594.5)" />
   <path
      style="fill: none; stroke: #000000; stroke-width: 10; stroke-linecap: butt; stroke-linejoin: round; stroke-dasharray: none; stroke-miterlimit: 4; stroke-opacity: 1"
      d="M 750.7 2542.3 c 57.5 5.3 109.3 18.9 144.2 50.4 c 49.8 25.8 81.6 52.8 79 82.1 c 16 44.8 3.5 77.3 -5.8 111.1 l -26.6 55.6 c -16.8 32.3 -51.5 53.9 -105.8 63.6 c -63.9 10.6 -127.8 23.3 -191.6 -13.1 c -72.6 -27.1 -76.1 -65.5 -83.1 -103.4 c -21.4 -38.8 -35.8 -85.6 -27.3 -157.9 c 7.5 -33.1 17.1 -75.1 64 -94.3 c 46.9 -19.2 88.9 -9.2 152.9 5.9 z"
      id="path2994" inkscape:connector-curvature="0" sodipodi:nodetypes="ccccccccczc" />
   <path
      style="fill: none; stroke: #000000; stroke-width: 10; stroke-linecap: butt; stroke-linejoin: miter; stroke-dasharray: none; stroke-miterlimit: 4; stroke-opacity: 1"
      d="M 579.6 2601.3 c -53.4 75.7 -16.8 109.1 5.2 149.3 c -6 68.2 -4.2 120.6 42 114.2 c 68.1 48.5 117.7 22.5 171.8 14.5 c 7.8 -12.3 8.3 -28.3 29.7 -33.7 c 0 0 47.7 -102.2 53.8 -118.2 c 6.2 -15.9 11.2 -45.5 -20.9 -77.5 c 0 0 -49.6 -51.9 -81.5 -66.4 c -15.2 -6.9 -33 -4.8 -49.3 -8.6 c -33.3 -7.7 -98.5 -28.4 -98.5 -28.4 c -31.2 -6.9 -50.7 9.3 -52.3 54.8 z"
      id="path3772" inkscape:connector-curvature="0" sodipodi:nodetypes="ccccczcaacc" />
   <path
      style="fill: none; stroke: #000000; stroke-width: 10; stroke-linecap: round; stroke-linejoin: miter; stroke-dasharray: none; stroke-miterlimit: 4; stroke-opacity: 1"
      d="M 597.2 2340.8 c -20.2 -27.6 -17.5 -67.8 -3.9 -114.1 c 51.9 -118.8 145.1 -144.4 290.3 -52.8 c 45.5 18.4 81.6 53.7 105.4 89 c 23.4 34.7 45.1 51.4 33.5 112.8 c -26.7 103.4 -72.7 184.5 -203.3 168.5 c -51.9 -6.3 -97.7 7.3 -163.3 -44.1 c -25.4 -42 -74.3 -39.2 -58.7 -159.3 z"
      id="path5171" inkscape:connector-curvature="0" sodipodi:nodetypes="cccscccc" />
   <path
      style="fill: none; stroke: #000000; stroke-width: 10; stroke-linecap: butt; stroke-linejoin: miter; stroke-dasharray: none; stroke-miterlimit: 4; stroke-opacity: 1"
      d="M 656.8 2187.4 c 54.6 -118.1 144 -24.2 230.8 54.1 c 17.8 21.4 40.3 34.8 47.7 73.4 c 26.8 68 -39.6 106.8 -70.8 153.3 c -31.2 46.5 -63.4 69.7 -119.9 51.8 c -131.9 -48.6 -136.9 -112.4 -116.4 -179.2 c -41.7 -98.9 -13.4 -104.1 -2.5 -132.4 c 10.3 -5.7 20.7 -8.4 31 -21 z"
      id="path5173" inkscape:connector-curvature="0" sodipodi:nodetypes="ccczcccc" />
   <path
      style="fill: none; stroke: #000000; stroke-width: 10; stroke-linecap: butt; stroke-linejoin: miter; stroke-dasharray: none; stroke-miterlimit: 4; stroke-opacity: 1"
      d="M 732.5 1763.7 c 99 -85.9 172 -36.3 245 13.3 c 19.7 24.5 39 48.9 66 73.4 c 82.7 79.5 67.1 133.4 19.2 178.9 c -29.8 33.1 -58.4 65.6 -73.5 91.4 c -17.2 17.8 -33.1 31.4 -46.6 37.9 c -63.7 28.6 -88.1 -11.3 -123.9 -31.3 c -128.6 -67.8 -174.6 -162.1 -141.5 -282.1 c 3.6 -46.2 25.4 -69.1 55.1 -81.5 z"
      id="path5187" inkscape:connector-curvature="0" sodipodi:nodetypes="ccccccccc" />
   <path
      style="fill: none; stroke: #000000; stroke-width: 10; stroke-linecap: butt; stroke-linejoin: miter; stroke-dasharray: none; stroke-miterlimit: 4; stroke-opacity: 1"
      d="M 747.7 1868 c -20.8 -96.4 29.4 -85.8 56.6 -109.7 c 47.3 -11.4 86.9 -39.1 166.2 17.3 c 59 82.1 41.4 128.2 48.8 186 c 3.6 55.3 -12.9 88.8 -35.5 102.7 c -5.6 29.8 -4.3 58.3 -53.7 84.4 c -42.1 37.5 -71.7 5.2 -102.8 -18.6 c -46.8 -12.6 -54.3 -43.4 -53.3 -86.1 c -95.3 -41.4 -42 -119.7 -26.3 -176.1 z"
      id="path5189" inkscape:connector-curvature="0" sodipodi:nodetypes="ccccccccc" />

   <path
      style="fill: none; stroke: #000000; stroke-width: 10; stroke-linecap: round; stroke-linejoin: miter; stroke-dasharray: none; stroke-miterlimit: 4; stroke-opacity: 1"
      d="M 930.5 1467 c -97.8 13.9 -144.1 64.4 -114.5 168.7 c 31.2 38.3 59.5 79.4 112.4 96.1 c 18.7 -0.4 35.2 1.5 46.5 8.6 c 16.2 4.4 34.8 4.4 54.9 1.6 c 37.8 -20.1 88.7 -3.4 110 -70.1 c 17.6 -53.4 14.6 -100.4 -27.8 -135.3 c -83.8 -70.1 -129.9 -64.2 -181.5 -69.5 z"
      id="path3063" inkscape:connector-curvature="0" sodipodi:nodetypes="cccccccc" />

   <path
      style="fill: none; stroke: #000000; stroke-width: 10; stroke-linecap: round; stroke-linejoin: miter; stroke-dasharray: none; stroke-miterlimit: 4; stroke-opacity: 1"
      d="M 1009.5 1193.8 c -81.6 28.4 -87 67.6 -87.4 107.5 c -4.2 175.5 144.9 172.6 173.7 159.1 c 45.4 5.6 76.9 0.4 101.8 -10.1 c 46.3 -3.6 68.7 -31.3 76.1 -73.9 c 6.8 -22.9 9.1 -48.1 -2.4 -80.2 c -8.4 -17.9 -2.7 -35.1 -54.2 -55.3 c -54.3 -6 -71.5 -19.8 -93.9 -34.7 c -32.2 -35 -72.3 -27.3 -113.8 -12.4 z"
      id="path3876" inkscape:connector-curvature="0" sodipodi:nodetypes="ccccccccc" />

   <path
      style="fill: none; stroke: #000000; stroke-width: 10; stroke-linecap: round; stroke-linejoin: miter; stroke-dasharray: none; stroke-miterlimit: 4; stroke-opacity: 1"
      d="M 1222.2 1255.6 c 16 35.6 0.1 64.8 3.2 90.5 c 3 35.9 -7.7 66.4 -45.9 86.1 c -23.5 13.2 -52.1 15.9 -77.6 17.9"
      id="path3888" inkscape:connector-curvature="0" sodipodi:nodetypes="cccc" />
   <path
      style="fill: none; stroke: #000000; stroke-width: 10; stroke-linecap: round; stroke-linejoin: miter; stroke-dasharray: none; stroke-miterlimit: 4; stroke-opacity: 1"
      d="M 1006.3 1730.9 c 37.3 -25.4 87.2 -4.1 103.7 -80.8 c 2.9 -24.4 19.6 -53.3 -18.7 -109.5" id="path3890"
      inkscape:connector-curvature="0" sodipodi:nodetypes="ccc" />
   <path
      style="fill: none; stroke: #000000; stroke-width: 10; stroke-linecap: round; stroke-linejoin: miter; stroke-dasharray: none; stroke-miterlimit: 4; stroke-opacity: 1"
      d="M 1156 1202 c -54 -18 -79.4 -51 -85.1 -94.2 c -6.7 -42.2 0.7 -83.4 26.2 -123.2 c 22.3 -62 44.4 -58.6 66.5 -62.8 c 19.7 2.5 37.7 1.4 55.2 -0.7 c 52.8 -2.3 72.5 21.6 85.2 37.3 c 44.6 59.7 39.7 94.5 50.5 137.2 c 5.6 47.2 3.1 87.5 -21 109.4 c -73.3 54.8 -85.8 28 -116.4 25.6 c -57.1 -24.1 -42.4 -19.7 -61.1 -28.6 z"
      id="path3892" inkscape:connector-curvature="0" sodipodi:nodetypes="cccccccccc" />
   <path
      style="fill: none; stroke: #000000; stroke-width: 10; stroke-linecap: round; stroke-linejoin: miter; stroke-dasharray: none; stroke-miterlimit: 4; stroke-opacity: 1"
      d="M 1122.5 1140.7 c 2.6 -58.4 7.5 -113.8 34.9 -140.4 c 27.1 -28.4 61.9 -48.9 109.6 -56.6" id="path3894"
      inkscape:connector-curvature="0" sodipodi:nodetypes="ccc" />

   <path
      style="fill: none; stroke: #000000; stroke-width: 10; stroke-linecap: round; stroke-linejoin: miter; stroke-dasharray: none; stroke-miterlimit: 4; stroke-opacity: 1"
      d="M 1324.2 847.2 c 133.4 -87.6 106.1 -62 163.1 -81.5 c 19.9 -7.1 36.4 -8.2 44.8 5.3 l 31 31.1 c 21 26.4 19.6 32 22.3 41.4 c 9.9 81.7 -1.5 80.7 -3.8 115.5 c -15.3 29.6 -33.7 56 -64.8 69.7 c -19.2 13.6 -45.9 12.2 -74.2 7.6 l -46.5 -11.3 c -18.2 2.7 -34 -9.4 -49.9 -20 c -33.7 -23.7 -42.5 -57.3 -54.1 -89.8 c -2.3 -21 3.6 -39.6 17.4 -56 z"
      id="path3900" inkscape:connector-curvature="0" sodipodi:nodetypes="ccccccccccccc" />
   <path
      style="fill: none; stroke: #000000; stroke-width: 10; stroke-linecap: round; stroke-linejoin: miter; stroke-dasharray: none; stroke-miterlimit: 4; stroke-opacity: 1"
      d="M 1361.7 995.6 c -17.9 -27.8 -46.6 -50.3 -11.8 -104.3 c 31.9 -24.9 56.8 -32.6 84.6 -47.2 c 23.9 -12 47.6 -23.7 64.7 -22.2 c 71.2 -6.8 41.9 10.2 61.2 15.7"
      id="path3902" inkscape:connector-curvature="0" sodipodi:nodetypes="ccccc" />
   <path
      style="fill: none; stroke: #000000; stroke-width: 10; stroke-linecap: round; stroke-linejoin: miter; stroke-dasharray: none; stroke-miterlimit: 4; stroke-opacity: 1"
      d="M 1584.7 793.6 c 0.7 6 35.7 67.9 44.6 95.8 c 12 30.2 31 57.4 81.7 71.8 c 41.4 -5.1 83.4 -6.2 118.2 -55.7 l 85.7 -129.9 l 15.6 -41.3 c 11.3 -29.8 -13.2 -57.3 -36 -69.1 l -62 -16.5 c -36.2 -2.3 -60.3 -12.9 -131.1 8.3 l -66.4 14.5 c -24.2 10.7 -56.4 6.5 -57.1 60.2 c 1.3 20.5 -6.8 39.5 6.7 62.1 z"
      id="path3908" inkscape:connector-curvature="0" sodipodi:nodetypes="cccccscccccc" />
   <path
      style="fill: none; stroke: #000000; stroke-width: 10; stroke-linecap: round; stroke-linejoin: miter; stroke-dasharray: none; stroke-miterlimit: 4; stroke-opacity: 1"
      d="M 1648.3 873.1 l -15.2 -126.8 c 8.2 0 -9.3 -25.6 21.6 -37 c 112.9 -44 178.1 -11.7 196.6 -2.1 c 18.4 9.7 34.4 36.1 30.9 63.9 c -3.5 27.8 -11.3 34.4 -16.5 48.2"
      id="path3910" inkscape:connector-curvature="0" sodipodi:nodetypes="ccczzc" />
   <path sodipodi:nodetypes="ccccccccczc" inkscape:connector-curvature="0" id="path4278"
      d="M 3128.9 2542.7 c -57.5 5.3 -109.3 18.9 -144.2 50.4 c -49.8 25.8 -81.6 52.8 -79 82.1 c -16 44.8 -3.5 77.3 5.8 111.1 l 26.6 55.6 c 16.8 32.3 51.5 53.9 105.8 63.6 c 63.9 10.6 127.8 23.3 191.6 -13.1 c 72.6 -27.1 76.1 -65.5 83.1 -103.4 c 21.4 -38.8 35.8 -85.6 27.3 -157.9 c -7.5 -33.1 -17.1 -75.1 -64 -94.3 c -46.9 -19.2 -88.9 -9.2 -152.9 5.9 z"
      style="fill: none; stroke: #000000; stroke-width: 10; stroke-linecap: butt; stroke-linejoin: round; stroke-dasharray: none; stroke-miterlimit: 4; stroke-opacity: 1" />
   <path sodipodi:nodetypes="ccccczcaacc" inkscape:connector-curvature="0" id="path4280"
      d="M 3299.9 2601.8 c 53.4 75.7 16.8 109.1 -5.2 149.3 c 6 68.2 4.2 120.6 -42 114.2 c -68.1 48.5 -117.7 22.5 -171.8 14.5 c -7.8 -12.3 -8.3 -28.3 -29.7 -33.7 c 0 0 -47.7 -102.2 -53.8 -118.2 c -6.2 -15.9 -11.2 -45.5 20.9 -77.5 c 0 0 49.6 -51.9 81.5 -66.4 c 15.2 -6.9 33 -4.8 49.3 -8.6 c 33.3 -7.7 98.5 -28.4 98.5 -28.4 c 31.2 -6.9 50.7 9.3 52.3 54.8 z"
      style="fill: none; stroke: #000000; stroke-width: 10; stroke-linecap: butt; stroke-linejoin: miter; stroke-dasharray: none; stroke-miterlimit: 4; stroke-opacity: 1" />
   <path sodipodi:nodetypes="cccscccc" inkscape:connector-curvature="0" id="path4290"
      d="M 3282.3 2341.3 c 20.2 -27.6 17.5 -67.8 3.9 -114.1 c -51.9 -118.8 -145.1 -144.4 -290.3 -52.8 c -45.5 18.4 -81.6 53.7 -105.4 89 c -23.4 34.7 -45.1 51.4 -33.5 112.8 c 26.7 103.4 72.7 184.5 203.3 168.5 c 51.9 -6.3 97.7 7.3 163.3 -44.1 c 25.4 -42 74.3 -39.2 58.7 -159.3 z"
      style="fill: none; stroke: #000000; stroke-width: 10; stroke-linecap: round; stroke-linejoin: miter; stroke-dasharray: none; stroke-miterlimit: 4; stroke-opacity: 1" />
   <path sodipodi:nodetypes="ccczcccc" inkscape:connector-curvature="0" id="path4292"
      d="M 3222.8 2187.9 c -54.6 -118.1 -144 -24.2 -230.8 54.1 c -17.8 21.4 -40.3 34.8 -47.7 73.4 c -26.8 68 39.6 106.8 70.8 153.3 c 31.2 46.5 63.4 69.7 119.9 51.8 c 131.9 -48.6 136.9 -112.4 116.4 -179.2 c 41.7 -98.9 13.4 -104.1 2.5 -132.4 c -10.3 -5.7 -20.7 -8.4 -31 -21 z"
      style="fill: none; stroke: #000000; stroke-width: 10; stroke-linecap: butt; stroke-linejoin: miter; stroke-dasharray: none; stroke-miterlimit: 4; stroke-opacity: 1" />
   <path sodipodi:nodetypes="ccccccccc" inkscape:connector-curvature="0" id="path4306"
      d="M 3147 1764.2 c -99 -85.9 -172 -36.3 -245 13.3 c -19.7 24.5 -39 48.9 -66 73.4 c -82.7 79.5 -67.1 133.4 -19.2 178.9 c 29.8 33.1 58.4 65.6 73.5 91.4 c 17.2 17.8 33.1 31.4 46.6 37.9 c 63.7 28.6 88.1 -11.3 123.9 -31.3 c 128.6 -67.8 174.6 -162.1 141.5 -282.1 c -3.6 -46.2 -25.4 -69.1 -55.1 -81.5 z"
      style="fill: none; stroke: #000000; stroke-width: 10; stroke-linecap: butt; stroke-linejoin: miter; stroke-dasharray: none; stroke-miterlimit: 4; stroke-opacity: 1" />
   <path sodipodi:nodetypes="ccccccccc" inkscape:connector-curvature="0" id="path4308"
      d="M 3131.8 1868.4 c 20.8 -96.4 -29.4 -85.8 -56.6 -109.7 c -47.3 -11.4 -86.9 -39.1 -166.2 17.3 c -59 82.1 -41.4 128.2 -48.8 186 c -3.6 55.3 12.9 88.8 35.5 102.7 c 5.6 29.8 4.3 58.3 53.7 84.4 c 42.1 37.5 71.7 5.2 102.8 -18.6 c 46.8 -12.6 54.3 -43.4 53.3 -86.1 c 95.3 -41.4 42 -119.7 26.3 -176.1 z"
      style="fill: none; stroke: #000000; stroke-width: 10; stroke-linecap: butt; stroke-linejoin: miter; stroke-dasharray: none; stroke-miterlimit: 4; stroke-opacity: 1" />
   <path sodipodi:nodetypes="cccccccc" inkscape:connector-curvature="0" id="path4320"
      d="M 2949.1 1467.5 c 97.8 13.9 144.1 64.4 114.5 168.7 c -31.2 38.3 -59.5 79.4 -112.4 96.1 c -18.7 -0.4 -35.2 1.5 -46.5 8.6 c -16.2 4.4 -34.8 4.4 -54.9 1.6 c -37.8 -20.1 -88.7 -3.4 -110 -70.1 c -17.6 -53.4 -14.6 -100.4 27.8 -135.3 c 83.8 -70.1 129.9 -64.2 181.5 -69.5 z"
      style="fill: none; stroke: #000000; stroke-width: 10; stroke-linecap: round; stroke-linejoin: miter; stroke-dasharray: none; stroke-miterlimit: 4; stroke-opacity: 1" />
   <path sodipodi:nodetypes="ccccccccc" inkscape:connector-curvature="0" id="path4332"
      d="M 2870.1 1194.3 c 81.6 28.4 87 67.6 87.4 107.5 c 4.2 175.5 -144.9 172.6 -173.7 159.1 c -45.4 5.6 -76.9 0.4 -101.8 -10.1 c -46.3 -3.6 -68.7 -31.3 -76.1 -73.9 c -6.8 -22.9 -9.1 -48.1 2.4 -80.2 c 8.4 -17.9 2.7 -35.1 54.2 -55.3 c 54.3 -6 71.5 -19.8 93.9 -34.7 c 32.2 -35 72.3 -27.3 113.8 -12.4 z"
      style="fill: none; stroke: #000000; stroke-width: 10; stroke-linecap: round; stroke-linejoin: miter; stroke-dasharray: none; stroke-miterlimit: 4; stroke-opacity: 1" />
   <path sodipodi:nodetypes="ccccc" inkscape:connector-curvature="0" id="path4334"
      d="M 2792.5 1194.5 c -0.4 8.6 -6.6 17.3 14.7 25.8 c 37 30 34.5 52.2 26.1 73.2 c -17.1 32.5 -11 47.9 6.2 55.2 c 53.3 51.7 41.2 62.3 55.4 89.5"
      style="fill: none; stroke: #000000; stroke-width: 10; stroke-linecap: round; stroke-linejoin: miter; stroke-dasharray: none; stroke-miterlimit: 4; stroke-opacity: 1" />
   <path sodipodi:nodetypes="ccc" inkscape:connector-curvature="0" id="path4346"
      d="M 2873.2 1731.3 c -37.3 -25.4 -87.2 -4.1 -103.7 -80.8 c -2.9 -24.4 -19.6 -53.3 18.7 -109.5"
      style="fill: none; stroke: #000000; stroke-width: 10; stroke-linecap: round; stroke-linejoin: miter; stroke-dasharray: none; stroke-miterlimit: 4; stroke-opacity: 1" />
   <path sodipodi:nodetypes="cccccccccc" inkscape:connector-curvature="0" id="path4348"
      d="M 2723.5 1202.4 c 54 -18 79.4 -51 85.1 -94.2 c 6.7 -42.2 -0.7 -83.4 -26.2 -123.2 c -22.3 -62 -44.4 -58.6 -66.5 -62.8 c -19.7 2.5 -37.7 1.4 -55.2 -0.7 c -52.8 -2.3 -72.5 21.6 -85.2 37.3 c -44.6 59.7 -39.7 94.5 -50.5 137.2 c -5.6 47.2 -3.1 87.5 21 109.4 c 73.3 54.8 85.8 28 116.4 25.6 c 57.1 -24.1 42.4 -19.7 61.1 -28.6 z"
      style="fill: none; stroke: #000000; stroke-width: 10; stroke-linecap: round; stroke-linejoin: miter; stroke-dasharray: none; stroke-miterlimit: 4; stroke-opacity: 1" />
   <path sodipodi:nodetypes="ccc" inkscape:connector-curvature="0" id="path4350"
      d="M 2757 1141.1 c -2.6 -58.4 -7.5 -113.8 -34.9 -140.4 c -27.1 -28.4 -61.9 -48.9 -109.6 -56.6"
      style="fill: none; stroke: #000000; stroke-width: 10; stroke-linecap: round; stroke-linejoin: miter; stroke-dasharray: none; stroke-miterlimit: 4; stroke-opacity: 1" />
   <path sodipodi:nodetypes="ccccccccccccc" inkscape:connector-curvature="0" id="path4356"
      d="M 2555.4 847.7 c -133.4 -87.6 -106.1 -62 -163.1 -81.5 c -19.9 -7.1 -36.4 -8.2 -44.8 5.3 l -31 31.1 c -21 26.4 -19.6 32 -22.3 41.4 c -9.9 81.7 1.5 80.7 3.8 115.5 c 15.3 29.6 33.7 56 64.8 69.7 c 19.2 13.6 45.9 12.2 74.2 7.6 l 46.5 -11.3 c 18.2 2.7 34 -9.4 49.9 -20 c 33.7 -23.7 42.5 -57.3 54.1 -89.8 c 2.3 -21 -3.6 -39.6 -17.4 -56 z"
      style="fill: none; stroke: #000000; stroke-width: 10; stroke-linecap: round; stroke-linejoin: miter; stroke-dasharray: none; stroke-miterlimit: 4; stroke-opacity: 1" />
   <path sodipodi:nodetypes="ccccc" inkscape:connector-curvature="0" id="path4358"
      d="M 2517.8 996.1 c 17.9 -27.8 46.6 -50.3 11.8 -104.3 c -31.9 -24.9 -56.8 -32.6 -84.6 -47.2 c -23.9 -12 -47.6 -23.7 -64.7 -22.2 c -71.2 -6.8 -41.9 10.2 -61.2 15.7"
      style="fill: none; stroke: #000000; stroke-width: 10; stroke-linecap: round; stroke-linejoin: miter; stroke-dasharray: none; stroke-miterlimit: 4; stroke-opacity: 1" />
   <path sodipodi:nodetypes="cccccscccccc" inkscape:connector-curvature="0" id="path4364"
      d="M 2294.9 794.1 c -0.7 6 -35.7 67.9 -44.6 95.8 c -12 30.2 -31 57.4 -81.7 71.8 c -41.4 -5.1 -83.4 -6.2 -118.2 -55.7 l -85.7 -129.9 l -15.6 -41.3 c -11.3 -29.8 13.2 -57.3 36 -69.1 l 62 -16.5 c 36.2 -2.3 60.3 -12.9 131.1 8.3 l 66.4 14.5 c 24.2 10.7 56.4 6.5 57.1 60.2 c -1.3 20.5 6.8 39.5 -6.7 62.1 z"
      style="fill: none; stroke: #000000; stroke-width: 10; stroke-linecap: round; stroke-linejoin: miter; stroke-dasharray: none; stroke-miterlimit: 4; stroke-opacity: 1" />
   <path sodipodi:nodetypes="ccczzc" inkscape:connector-curvature="0" id="path4366"
      d="M 2231.3 873.5 l 15.2 -126.8 c -8.2 0 9.3 -25.6 -21.6 -37 c -112.9 -44 -178.1 -11.7 -196.6 -2.1 c -18.4 9.7 -34.4 36.1 -30.9 63.9 c 3.5 27.8 11.3 34.4 16.5 48.2"
      style="fill: none; stroke: #000000; stroke-width: 10; stroke-linecap: round; stroke-linejoin: miter; stroke-dasharray: none; stroke-miterlimit: 4; stroke-opacity: 1" />
</svg>