<?xml version="1.0" encoding="UTF-8" standalone="no"?>
<!-- Created with Inkscape (http://www.inkscape.org/) -->

<svg xmlns:dc="http://purl.org/dc/elements/1.1/" xmlns:cc="http://creativecommons.org/ns#"
   xmlns:rdf="http://www.w3.org/1999/02/22-rdf-syntax-ns#" xmlns:svg="http://www.w3.org/2000/svg"
   xmlns="http://www.w3.org/2000/svg" xmlns:xlink="http://www.w3.org/1999/xlink"
   xmlns:sodipodi="http://sodipodi.sourceforge.net/DTD/sodipodi-0.dtd"
   xmlns:inkscape="http://www.inkscape.org/namespaces/inkscape" id="svg2" version="1.1" inkscape:version="0.48.2 r9819"
   width="4557.2" height="3134.5" sodipodi:docname="Numata panorama xray teeth.svg">
   <title id="title2987">Numata panorama xray teeth</title>
   <metadata id="metadata8">
      <rdf:RDF>
         <cc:Work rdf:about="">
            <dc:format>image/svg+xml</dc:format>
            <dc:type rdf:resource="http://purl.org/dc/dcmitype/StillImage" />
            <dc:title>Numata panorama xray teeth</dc:title>
         </cc:Work>
      </rdf:RDF>
   </metadata>
   <defs id="defs6">
      <marker inkscape:stockid="Arrow1Lend" orient="auto" refY="0" refX="0" id="Arrow1Lend" style="overflow:visible">
         <path id="path4369" d="M 0 0 L 5 -5 L -12.5 0 L 5 5 L 0 0 z"
            style="fill-rule: evenodd; stroke: #000000; stroke-width: 1pt; marker-start: none"
            transform="matrix(-0.8,0,0,-0.8,-10,0)" inkscape:connector-curvature="0" />
      </marker>
      <marker inkscape:stockid="Arrow1Mend" orient="auto" refY="0" refX="0" id="Arrow1Mend" style="overflow:visible">
         <path id="path4375" d="M 0 0 L 5 -5 L -12.5 0 L 5 5 L 0 0 z"
            style="fill-rule: evenodd; stroke: #000000; stroke-width: 1pt; marker-start: none"
            transform="matrix(-0.4,0,0,-0.4,-4,0)" inkscape:connector-curvature="0" />
      </marker>
      <marker inkscape:stockid="Arrow1Mstart" orient="auto" refY="0" refX="0" id="Arrow1Mstart"
         style="overflow:visible">
         <path id="path4372" d="M 0 0 L 5 -5 L -12.5 0 L 5 5 L 0 0 z"
            style="fill-rule: evenodd; stroke: #000000; stroke-width: 1pt; marker-start: none"
            transform="matrix(0.4,0,0,0.4,4,0)" inkscape:connector-curvature="0" />
      </marker>
      <marker style="overflow:visible" inkscape:stockid="InfiniteLineEnd" id="InfiniteLineEnd" refX="0" refY="0"
         orient="auto">
         <g id="g4021">
            <circle id="circle4023" r="0.8" cy="0" cx="3" sodipodi:cx="3" sodipodi:cy="0" sodipodi:rx="0.8000000119209"
               sodipodi:ry="0.8000000119209" />
            <circle id="circle4025" r="0.8" cy="0" cx="6.5" sodipodi:cx="6.5" sodipodi:cy="0"
               sodipodi:rx="0.8000000119209" sodipodi:ry="0.8000000119209" />
            <circle id="circle4027" r="0.8" cy="0" cx="10" sodipodi:cx="10" sodipodi:cy="0"
               sodipodi:rx="0.8000000119209" sodipodi:ry="0.8000000119209" />
         </g>
      </marker>
      <marker inkscape:stockid="TriangleInS" orient="auto" refY="0" refX="0" id="TriangleInS" style="overflow:visible">
         <path id="path3925" d="M 5.8 0 l -8.7 5 l 0 -10 l 8.7 5 z"
            style="fill-rule: evenodd; stroke: #000000; stroke-width: 1pt; marker-start: none"
            transform="scale(-0.2,-0.2)" inkscape:connector-curvature="0" />
      </marker>
      <marker inkscape:stockid="Arrow1Sstart" orient="auto" refY="0" refX="0" id="Arrow1Sstart"
         style="overflow:visible">
         <path id="path3797" d="M 0 0 L 5 -5 L -12.5 0 L 5 5 L 0 0 z"
            style="fill-rule: evenodd; stroke: #000000; stroke-width: 1pt; marker-start: none"
            transform="matrix(0.2,0,0,0.2,1.2,0)" inkscape:connector-curvature="0" />
      </marker>
      <marker inkscape:stockid="Arrow1Lstart" orient="auto" refY="0" refX="0" id="Arrow1Lstart"
         style="overflow:visible">
         <path id="path3785" d="M 0 0 L 5 -5 L -12.5 0 L 5 5 L 0 0 z"
            style="fill-rule: evenodd; stroke: #000000; stroke-width: 1pt; marker-start: none"
            transform="matrix(0.8,0,0,0.8,10,0)" inkscape:connector-curvature="0" />
      </marker>
   </defs>
   <sodipodi:namedview pagecolor="#ffffff" bordercolor="#666666" borderopacity="1" objecttolerance="10"
      gridtolerance="10" guidetolerance="10" inkscape:pageopacity="0" inkscape:pageshadow="2"
      inkscape:window-width="1280" inkscape:window-height="781" id="namedview4" showgrid="false"
      inkscape:zoom="0.1208910034602" inkscape:cx="592.6952936355" inkscape:cy="1326.865278745" inkscape:window-x="-4"
      inkscape:window-y="-4" inkscape:window-maximized="1" inkscape:current-layer="svg2" showguides="true"
      inkscape:guide-bbox="true" fit-margin-top="100" fit-margin-left="100" fit-margin-right="100"
      fit-margin-bottom="100" />
   <g inkscape:groupmode="layer" id="layer1" inkscape:label="svg" transform="translate(477.4,594.5)" />
   <path
      style="fill: none; stroke: #000000; stroke-width: 10; stroke-linecap: butt; stroke-linejoin: round; stroke-dasharray: none; stroke-miterlimit: 4; stroke-opacity: 1"
      d="M 750.7 2542.3 c 57.5 5.3 109.3 18.9 144.2 50.4 c 49.8 25.8 81.6 52.8 79 82.1 c 16 44.8 3.5 77.3 -5.8 111.1 l -26.6 55.6 c -16.8 32.3 -51.5 53.9 -105.8 63.6 c -63.9 10.6 -127.8 23.3 -191.6 -13.1 c -72.6 -27.1 -76.1 -65.5 -83.1 -103.4 c -21.4 -38.8 -35.8 -85.6 -27.3 -157.9 c 7.5 -33.1 17.1 -75.1 64 -94.3 c 46.9 -19.2 88.9 -9.2 152.9 5.9 z"
      id="path2994" inkscape:connector-curvature="0" sodipodi:nodetypes="ccccccccczc" />
      id="path3772" inkscape:connector-curvature="0" sodipodi:nodetypes="ccccczcaacc" />
   <path
      style="fill: none; stroke: #000000; stroke-width: 10; stroke-linecap: round; stroke-linejoin: miter; stroke-dasharray: none; stroke-miterlimit: 4; stroke-opacity: 1"
      d="M 597.2 2340.8 c -20.2 -27.6 -17.5 -67.8 -3.9 -114.1 c 51.9 -118.8 145.1 -144.4 290.3 -52.8 c 45.5 18.4 81.6 53.7 105.4 89 c 23.4 34.7 45.1 51.4 33.5 112.8 c -26.7 103.4 -72.7 184.5 -203.3 168.5 c -51.9 -6.3 -97.7 7.3 -163.3 -44.1 c -25.4 -42 -74.3 -39.2 -58.7 -159.3 z"
      id="path5171" inkscape:connector-curvature="0" sodipodi:nodetypes="cccscccc" />
   <path
      style="fill: none; stroke: #000000; stroke-width: 10; stroke-linecap: butt; stroke-linejoin: miter; stroke-dasharray: none; stroke-miterlimit: 4; stroke-opacity: 1"
      d="M 732.5 1763.7 c 99 -85.9 172 -36.3 245 13.3 c 19.7 24.5 39 48.9 66 73.4 c 82.7 79.5 67.1 133.4 19.2 178.9 c -29.8 33.1 -58.4 65.6 -73.5 91.4 c -17.2 17.8 -33.1 31.4 -46.6 37.9 c -63.7 28.6 -88.1 -11.3 -123.9 -31.3 c -128.6 -67.8 -174.6 -162.1 -141.5 -282.1 c 3.6 -46.2 25.4 -69.1 55.1 -81.5 z"
      id="path5187" inkscape:connector-curvature="0" sodipodi:nodetypes="ccccccccc" />

   <path
      style="fill: none; stroke: #000000; stroke-width: 10; stroke-linecap: round; stroke-linejoin: miter; stroke-dasharray: none; stroke-miterlimit: 4; stroke-opacity: 1"
      d="M 930.5 1467 c -97.8 13.9 -144.1 64.4 -114.5 168.7 c 31.2 38.3 59.5 79.4 112.4 96.1 c 18.7 -0.4 35.2 1.5 46.5 8.6 c 16.2 4.4 34.8 4.4 54.9 1.6 c 37.8 -20.1 88.7 -3.4 110 -70.1 c 17.6 -53.4 14.6 -100.4 -27.8 -135.3 c -83.8 -70.1 -129.9 -64.2 -181.5 -69.5 z"
      id="path3063" inkscape:connector-curvature="0" sodipodi:nodetypes="cccccccc" />

   <path
      style="fill: none; stroke: #000000; stroke-width: 10; stroke-linecap: round; stroke-linejoin: miter; stroke-dasharray: none; stroke-miterlimit: 4; stroke-opacity: 1"
      d="M 1009.5 1193.8 c -81.6 28.4 -87 67.6 -87.4 107.5 c -4.2 175.5 144.9 172.6 173.7 159.1 c 45.4 5.6 76.9 0.4 101.8 -10.1 c 46.3 -3.6 68.7 -31.3 76.1 -73.9 c 6.8 -22.9 9.1 -48.1 -2.4 -80.2 c -8.4 -17.9 -2.7 -35.1 -54.2 -55.3 c -54.3 -6 -71.5 -19.8 -93.9 -34.7 c -32.2 -35 -72.3 -27.3 -113.8 -12.4 z"
      id="path3876" inkscape:connector-curvature="0" sodipodi:nodetypes="ccccccccc" />

   <path
      style="fill: none; stroke: #000000; stroke-width: 10; stroke-linecap: round; stroke-linejoin: miter; stroke-dasharray: none; stroke-miterlimit: 4; stroke-opacity: 1"
      d="M 1156 1202 c -54 -18 -79.4 -51 -85.1 -94.2 c -6.7 -42.2 0.7 -83.4 26.2 -123.2 c 22.3 -62 44.4 -58.6 66.5 -62.8 c 19.7 2.5 37.7 1.4 55.2 -0.7 c 52.8 -2.3 72.5 21.6 85.2 37.3 c 44.6 59.7 39.7 94.5 50.5 137.2 c 5.6 47.2 3.1 87.5 -21 109.4 c -73.3 54.8 -85.8 28 -116.4 25.6 c -57.1 -24.1 -42.4 -19.7 -61.1 -28.6 z"
      id="path3892" inkscape:connector-curvature="0" sodipodi:nodetypes="cccccccccc" />

   <path
      style="fill: none; stroke: #000000; stroke-width: 10; stroke-linecap: round; stroke-linejoin: miter; stroke-dasharray: none; stroke-miterlimit: 4; stroke-opacity: 1"
      d="M 1324.2 847.2 c 133.4 -87.6 106.1 -62 163.1 -81.5 c 19.9 -7.1 36.4 -8.2 44.8 5.3 l 31 31.1 c 21 26.4 19.6 32 22.3 41.4 c 9.9 81.7 -1.5 80.7 -3.8 115.5 c -15.3 29.6 -33.7 56 -64.8 69.7 c -19.2 13.6 -45.9 12.2 -74.2 7.6 l -46.5 -11.3 c -18.2 2.7 -34 -9.4 -49.9 -20 c -33.7 -23.7 -42.5 -57.3 -54.1 -89.8 c -2.3 -21 3.6 -39.6 17.4 -56 z"
      id="path3900" inkscape:connector-curvature="0" sodipodi:nodetypes="ccccccccccccc" />
   <path
      style="fill: none; stroke: #000000; stroke-width: 10; stroke-linecap: round; stroke-linejoin: miter; stroke-dasharray: none; stroke-miterlimit: 4; stroke-opacity: 1"
      d="M 1584.7 793.6 c 0.7 6 35.7 67.9 44.6 95.8 c 12 30.2 31 57.4 81.7 71.8 c 41.4 -5.1 83.4 -6.2 118.2 -55.7 l 85.7 -129.9 l 15.6 -41.3 c 11.3 -29.8 -13.2 -57.3 -36 -69.1 l -62 -16.5 c -36.2 -2.3 -60.3 -12.9 -131.1 8.3 l -66.4 14.5 c -24.2 10.7 -56.4 6.5 -57.1 60.2 c 1.3 20.5 -6.8 39.5 6.7 62.1 z"
      id="path3908" inkscape:connector-curvature="0" sodipodi:nodetypes="cccccscccccc" />
   <path sodipodi:nodetypes="ccccccccczc" inkscape:connector-curvature="0" id="path4278"
      d="M 3128.9 2542.7 c -57.5 5.3 -109.3 18.9 -144.2 50.4 c -49.8 25.8 -81.6 52.8 -79 82.1 c -16 44.8 -3.5 77.3 5.8 111.1 l 26.6 55.6 c 16.8 32.3 51.5 53.9 105.8 63.6 c 63.9 10.6 127.8 23.3 191.6 -13.1 c 72.6 -27.1 76.1 -65.5 83.1 -103.4 c 21.4 -38.8 35.8 -85.6 27.3 -157.9 c -7.5 -33.1 -17.1 -75.1 -64 -94.3 c -46.9 -19.2 -88.9 -9.2 -152.9 5.9 z"
      style="fill: none; stroke: #000000; stroke-width: 10; stroke-linecap: butt; stroke-linejoin: round; stroke-dasharray: none; stroke-miterlimit: 4; stroke-opacity: 1" />
   <path sodipodi:nodetypes="cccscccc" inkscape:connector-curvature="0" id="path4290"
      d="M 3282.3 2341.3 c 20.2 -27.6 17.5 -67.8 3.9 -114.1 c -51.9 -118.8 -145.1 -144.4 -290.3 -52.8 c -45.5 18.4 -81.6 53.7 -105.4 89 c -23.4 34.7 -45.1 51.4 -33.5 112.8 c 26.7 103.4 72.7 184.5 203.3 168.5 c 51.9 -6.3 97.7 7.3 163.3 -44.1 c 25.4 -42 74.3 -39.2 58.7 -159.3 z"
      style="fill: none; stroke: #000000; stroke-width: 10; stroke-linecap: round; stroke-linejoin: miter; stroke-dasharray: none; stroke-miterlimit: 4; stroke-opacity: 1" />
   <path sodipodi:nodetypes="ccccccccc" inkscape:connector-curvature="0" id="path4306"
      d="M 3147 1764.2 c -99 -85.9 -172 -36.3 -245 13.3 c -19.7 24.5 -39 48.9 -66 73.4 c -82.7 79.5 -67.1 133.4 -19.2 178.9 c 29.8 33.1 58.4 65.6 73.5 91.4 c 17.2 17.8 33.1 31.4 46.6 37.9 c 63.7 28.6 88.1 -11.3 123.9 -31.3 c 128.6 -67.8 174.6 -162.1 141.5 -282.1 c -3.6 -46.2 -25.4 -69.1 -55.1 -81.5 z"
      style="fill: none; stroke: #000000; stroke-width: 10; stroke-linecap: butt; stroke-linejoin: miter; stroke-dasharray: none; stroke-miterlimit: 4; stroke-opacity: 1" />
   <path sodipodi:nodetypes="cccccccc" inkscape:connector-curvature="0" id="path4320"
      d="M 2949.1 1467.5 c 97.8 13.9 144.1 64.4 114.5 168.7 c -31.2 38.3 -59.5 79.4 -112.4 96.1 c -18.7 -0.4 -35.2 1.5 -46.5 8.6 c -16.2 4.4 -34.8 4.4 -54.9 1.6 c -37.8 -20.1 -88.7 -3.4 -110 -70.1 c -17.6 -53.4 -14.6 -100.4 27.8 -135.3 c 83.8 -70.1 129.9 -64.2 181.5 -69.5 z"
      style="fill: none; stroke: #000000; stroke-width: 10; stroke-linecap: round; stroke-linejoin: miter; stroke-dasharray: none; stroke-miterlimit: 4; stroke-opacity: 1" />
   <path sodipodi:nodetypes="ccccccccc" inkscape:connector-curvature="0" id="path4332"
      d="M 2870.1 1194.3 c 81.6 28.4 87 67.6 87.4 107.5 c 4.2 175.5 -144.9 172.6 -173.7 159.1 c -45.4 5.6 -76.9 0.4 -101.8 -10.1 c -46.3 -3.6 -68.7 -31.3 -76.1 -73.9 c -6.8 -22.9 -9.1 -48.1 2.4 -80.2 c 8.4 -17.9 2.7 -35.1 54.2 -55.3 c 54.3 -6 71.5 -19.8 93.9 -34.7 c 32.2 -35 72.3 -27.3 113.8 -12.4 z"
      style="fill: none; stroke: #000000; stroke-width: 10; stroke-linecap: round; stroke-linejoin: miter; stroke-dasharray: none; stroke-miterlimit: 4; stroke-opacity: 1" />
   <path sodipodi:nodetypes="cccccccccc" inkscape:connector-curvature="0" id="path4348"
      d="M 2723.5 1202.4 c 54 -18 79.4 -51 85.1 -94.2 c 6.7 -42.2 -0.7 -83.4 -26.2 -123.2 c -22.3 -62 -44.4 -58.6 -66.5 -62.8 c -19.7 2.5 -37.7 1.4 -55.2 -0.7 c -52.8 -2.3 -72.5 21.6 -85.2 37.3 c -44.6 59.7 -39.7 94.5 -50.5 137.2 c -5.6 47.2 -3.1 87.5 21 109.4 c 73.3 54.8 85.8 28 116.4 25.6 c 57.1 -24.1 42.4 -19.7 61.1 -28.6 z"
      style="fill: none; stroke: #000000; stroke-width: 10; stroke-linecap: round; stroke-linejoin: miter; stroke-dasharray: none; stroke-miterlimit: 4; stroke-opacity: 1" />
   <path sodipodi:nodetypes="ccccccccccccc" inkscape:connector-curvature="0" id="path4356"
      d="M 2555.4 847.7 c -133.4 -87.6 -106.1 -62 -163.1 -81.5 c -19.9 -7.1 -36.4 -8.2 -44.8 5.3 l -31 31.1 c -21 26.4 -19.6 32 -22.3 41.4 c -9.9 81.7 1.5 80.7 3.8 115.5 c 15.3 29.6 33.7 56 64.8 69.7 c 19.2 13.6 45.9 12.2 74.2 7.6 l 46.5 -11.3 c 18.2 2.7 34 -9.4 49.9 -20 c 33.7 -23.7 42.5 -57.3 54.1 -89.8 c 2.3 -21 -3.6 -39.6 -17.4 -56 z"
      style="fill: none; stroke: #000000; stroke-width: 10; stroke-linecap: round; stroke-linejoin: miter; stroke-dasharray: none; stroke-miterlimit: 4; stroke-opacity: 1" />
   <path sodipodi:nodetypes="cccccscccccc" inkscape:connector-curvature="0" id="path4364"
      d="M 2294.9 794.1 c -0.7 6 -35.7 67.9 -44.6 95.8 c -12 30.2 -31 57.4 -81.7 71.8 c -41.4 -5.1 -83.4 -6.2 -118.2 -55.7 l -85.7 -129.9 l -15.6 -41.3 c -11.3 -29.8 13.2 -57.3 36 -69.1 l 62 -16.5 c 36.2 -2.3 60.3 -12.9 131.1 8.3 l 66.4 14.5 c 24.2 10.7 56.4 6.5 57.1 60.2 c -1.3 20.5 6.8 39.5 -6.7 62.1 z"
      style="fill: none; stroke: #000000; stroke-width: 10; stroke-linecap: round; stroke-linejoin: miter; stroke-dasharray: none; stroke-miterlimit: 4; stroke-opacity: 1" />
</svg>